# xmcd
# Copyright (C) 1995-1998 Ti Kan
#
# Track frame offsets:
#       150
#       13979
#       33176
#       50773
#       63623
#       67332
#       72542
#       90571
#       121075
#       129430
#       155760
#       160467
#       177143
#       193850
#       214242
#       218792
#
# Disc length: 3297 seconds
#
# Revision: 0
# Processed by: cddbd v1.5.2PL0 Copyright (c) Steve Scherf et al.
# Submitted via: CD-Transfer v1.0
#
DISCID=fa0cdf10
DTITLE=Dios Ke Te Crew - Xénese
DYEAR=06
DGENRE=
TTITLE0=Xénese
TTITLE1=Dios Ke Te Crew
TTITLE2=As Cousas Cambian
TTITLE3=Ke Traballe O Rei!!
TTITLE4=Antidisturbios
TTITLE5=Herdeiros Da Ditadura
TTITLE6=Sucia Verdade
TTITLE7=Colleita's Par'ti
TTITLE8=Guateque Interruptus
TTITLE9=Vas De Verde
TTITLE10=Fódete
TTITLE11=Apagha A Tele
TTITLE12=Positivas Vibracións
TTITLE13=Política Do Asfalto
TTITLE14=Virus
TTITLE15=Profecía
EXTD=
EXTT0=
EXTT1=
EXTT2=
EXTT3=
EXTT4=
EXTT5=
EXTT6=
EXTT7=
EXTT8=
EXTT9=
EXTT10=
EXTT11=
EXTT12=
EXTT13=
EXTT14=
EXTT15=
PLAYORDER=
